<?xml version="1.0" standalone="no"?>
<!DOCTYPE svg PUBLIC "-//W3C//DTD SVG 20010904//EN"
 "http://www.w3.org/TR/2001/REC-SVG-20010904/DTD/svg10.dtd">
<svg version="1.0" xmlns="http://www.w3.org/2000/svg"
 width="804.000000pt" height="804.000000pt" viewBox="0 0 804.000000 804.000000"
 preserveAspectRatio="xMidYMid meet">
<metadata>
Created by potrace 1.14, written by Peter Selinger 2001-2017
</metadata>
<g transform="translate(0.000000,804.000000) scale(0.100000,-0.100000)"
fill="#000000" stroke="none">
<path d="M2225 7805 c-269 -35 -504 -108 -750 -233 -569 -288 -990 -798 -1169
-1415 -104 -360 -115 -789 -29 -1152 76 -323 238 -658 436 -902 l67 -83 -67
-82 c-198 -245 -360 -580 -436 -903 -72 -303 -76 -679 -12 -988 75 -363 248
-719 485 -1002 380 -452 903 -738 1490 -811 247 -31 558 -13 805 46 322 77
654 239 903 441 l72 59 73 -59 c329 -268 767 -447 1206 -492 140 -14 437 -7
576 15 848 134 1559 735 1825 1543 247 752 103 1558 -388 2165 l-54 68 61 75
c304 378 477 843 498 1340 48 1159 -790 2179 -1942 2361 -139 22 -436 29 -576
15 -439 -45 -877 -224 -1206 -492 l-73 -59 -72 59 c-119 96 -264 187 -423 266
-237 117 -464 186 -723 219 -149 19 -434 19 -577 1z m620 -655 c675 -144 1191
-676 1305 -1346 23 -135 28 -367 10 -499 -40 -288 -176 -600 -357 -816 l-39
-46 -64 40 c-256 157 -610 279 -924 317 -116 14 -406 14 -522 0 -318 -39 -602
-133 -883 -293 l-105 -60 -34 39 c-104 120 -232 352 -291 529 -61 184 -75 279
-75 510 -1 180 3 225 22 317 31 149 74 275 136 403 242 494 697 831 1242 920
133 21 447 14 579 -15z m3010 0 c440 -95 807 -343 1053 -710 120 -180 215
-420 252 -636 26 -150 28 -387 5 -530 -55 -347 -202 -644 -445 -897 -258 -270
-603 -447 -970 -497 -109 -15 -344 -15 -446 0 -301 44 -615 184 -830 370 l-31
27 40 64 c109 178 219 446 270 664 57 240 74 565 42 812 -39 301 -145 609
-302 877 l-47 79 40 35 c172 149 471 293 713 341 140 29 148 29 361 26 154 -2
216 -7 295 -25z m-2995 -3013 c58 -14 142 -37 185 -52 158 -53 379 -177 506
-283 l46 -38 -40 -64 c-157 -256 -279 -610 -317 -924 -14 -116 -14 -407 0
-520 41 -333 144 -633 313 -920 l41 -69 -39 -34 c-177 -154 -472 -293 -745
-350 -132 -28 -479 -25 -616 5 -155 33 -287 80 -419 147 -463 234 -779 648
-887 1163 -20 92 -23 136 -22 322 0 183 3 230 22 317 151 696 680 1203 1377
1319 55 9 145 12 285 10 175 -4 220 -8 310 -29z m1523 -605 c172 -100 415
-196 622 -245 324 -77 716 -77 1040 0 218 51 486 160 665 270 l64 40 39 -46
c180 -215 318 -531 357 -816 18 -132 13 -363 -10 -499 -102 -595 -535 -1102
-1104 -1291 -201 -67 -285 -80 -536 -80 -211 1 -232 2 -344 29 -379 89 -684
273 -920 556 -175 208 -300 464 -357 728 -26 124 -37 416 -20 547 38 288 158
572 341 804 54 68 56 69 79 54 13 -8 51 -31 84 -51z"/>
</g>
</svg>
