<?xml version="1.0" standalone="no"?>
<!DOCTYPE svg PUBLIC "-//W3C//DTD SVG 20010904//EN"
 "http://www.w3.org/TR/2001/REC-SVG-20010904/DTD/svg10.dtd">
<svg version="1.0" xmlns="http://www.w3.org/2000/svg"
 width="804.000000pt" height="804.000000pt" viewBox="0 0 804.000000 804.000000"
 preserveAspectRatio="xMidYMid meet">
<metadata>
Created by potrace 1.14, written by Peter Selinger 2001-2017
</metadata>
<g transform="translate(0.000000,804.000000) scale(0.100000,-0.100000)"
fill="#000000" stroke="none">
<path d="M5272 7574 c-377 -111 -839 -537 -1332 -1226 l-125 -175 -50 45
c-442 400 -756 639 -1040 795 -502 274 -854 303 -1050 85 -172 -192 -198 -554
-75 -1053 70 -285 192 -628 327 -920 117 -254 126 -274 120 -289 -4 -9 -18
-16 -31 -16 -14 0 -49 -9 -78 -21 -65 -25 -95 -20 -158 26 -84 62 -135 79
-231 80 -81 0 -90 -2 -172 -43 -129 -64 -191 -146 -211 -282 -14 -88 -13 -88
-227 -210 -344 -196 -498 -308 -612 -447 -128 -157 -173 -269 -165 -413 5 -76
11 -99 44 -165 66 -136 214 -259 435 -364 301 -143 832 -256 1364 -291 254
-17 256 -17 250 -43 -3 -12 -18 -78 -34 -147 -163 -692 -185 -1330 -60 -1704
61 -184 143 -292 267 -353 75 -38 77 -38 196 -37 109 0 130 3 208 31 378 135
825 563 1316 1260 l99 141 31 -25 c51 -39 56 -57 57 -188 0 -116 1 -122 34
-184 88 -170 264 -253 437 -206 102 27 136 19 263 -64 445 -290 710 -401 960
-401 139 0 250 41 337 125 111 109 166 288 165 540 0 394 -152 923 -457 1588
-35 77 -64 144 -64 148 0 4 138 53 307 109 343 114 496 176 724 291 589 298
925 668 871 961 -42 227 -241 403 -626 553 -301 118 -843 215 -1344 241 l-134
7 5 26 c15 73 24 109 30 119 4 6 31 18 60 28 235 77 347 326 241 538 -31 62
-61 97 -125 148 l-52 41 7 126 c12 212 8 508 -8 611 -44 281 -154 497 -293
573 -115 62 -259 73 -401 31z m237 -100 c68 -20 128 -79 170 -166 42 -88 59
-170 69 -329 15 -221 -17 -674 -49 -704 -8 -6 -40 -22 -72 -35 -80 -31 -149
-96 -189 -178 -31 -62 -33 -74 -33 -167 1 -90 4 -106 29 -155 16 -30 50 -78
77 -107 51 -54 57 -72 38 -120 -7 -15 -19 -57 -29 -93 l-18 -65 -198 -1 c-110
0 -310 -6 -445 -13 -226 -12 -250 -12 -282 4 -21 10 -79 67 -145 143 -60 70
-182 208 -271 307 -119 133 -161 187 -161 206 0 27 229 376 381 579 418 560
811 902 1045 909 17 1 54 -6 83 -15z m-3454 -364 c285 -41 714 -311 1160 -730
249 -234 425 -411 425 -426 0 -9 -78 -154 -174 -323 -96 -168 -194 -342 -219
-386 -24 -44 -55 -87 -68 -97 -28 -20 -755 -192 -814 -193 l-40 0 -52 100
c-373 718 -615 1450 -573 1732 32 208 99 300 235 324 22 3 42 7 45 8 3 0 37
-4 75 -9z m1913 -1507 c66 -76 152 -176 190 -223 l71 -85 -335 -44 c-184 -24
-337 -41 -340 -38 -3 3 36 79 88 169 51 90 116 208 143 261 28 53 53 97 57 97
3 0 60 -62 126 -137z m1462 -541 c0 -4 -44 -139 -98 -300 l-97 -293 -214 288
-213 288 239 11 c317 14 383 15 383 6z m710 -2 c631 -38 1100 -132 1385 -278
117 -60 215 -154 235 -225 31 -114 -10 -219 -134 -343 -165 -164 -447 -329
-796 -467 -216 -85 -928 -319 -951 -312 -24 8 -439 701 -439 734 -1 40 263
860 283 882 16 17 32 19 135 19 64 0 191 -5 282 -10z m-1653 -78 c18 -13 99
-116 180 -230 81 -114 190 -263 242 -332 118 -156 180 -251 187 -287 4 -22
-37 -124 -179 -448 -102 -231 -195 -442 -207 -468 -12 -27 -31 -52 -43 -57
-25 -9 -663 -94 -832 -110 -60 -6 -138 -13 -172 -17 -55 -5 -63 -4 -63 11 0 9
-62 101 -137 204 -411 562 -483 662 -483 672 0 15 170 410 310 722 86 191 106
228 128 237 71 27 864 131 972 128 50 -2 73 -8 97 -25z m-1470 -184 c-25 -64
-221 -516 -235 -543 -17 -34 -19 -35 -33 -18 -41 47 -272 444 -263 452 9 9
482 119 518 120 11 1 16 -4 13 -11z m-610 -543 c123 -210 212 -371 212 -386 1
-30 -266 -866 -283 -888 -24 -31 -757 16 -1086 70 -171 28 -417 85 -520 121
-199 70 -352 176 -404 280 -96 192 83 426 502 657 131 72 389 191 416 191 12
0 38 -14 58 -30 20 -17 63 -43 95 -58 50 -23 71 -27 153 -27 82 0 103 4 152
27 67 31 140 96 173 153 14 22 31 71 39 108 8 42 21 73 32 82 11 8 55 23 99
35 44 12 85 23 90 25 6 2 21 3 35 2 22 -2 53 -49 237 -362z m3045 -673 c114
-191 134 -228 120 -234 -25 -12 -524 -119 -529 -114 -2 2 53 137 124 299 85
196 131 292 138 286 5 -6 71 -112 147 -237z m-2407 -302 c128 -177 201 -286
193 -288 -14 -3 -602 -30 -605 -28 -3 2 141 447 173 534 14 40 28 72 29 70 2
-2 96 -131 210 -288z m2787 -385 c336 -659 523 -1212 530 -1568 1 -69 -4 -96
-30 -172 -39 -108 -71 -151 -143 -188 -78 -40 -170 -39 -305 3 -131 41 -318
135 -425 213 -47 34 -144 105 -217 157 -72 52 -136 105 -143 117 -10 18 -10
40 0 105 20 140 -12 242 -104 333 -60 60 -125 93 -208 107 -54 9 -73 8 -140
-11 -42 -11 -85 -21 -94 -21 -23 0 -133 109 -133 131 0 10 19 50 43 91 24 40
121 212 216 381 96 170 184 315 196 323 30 20 780 193 825 191 l35 -2 97 -190z
m-1371 -152 c-32 -54 -93 -163 -136 -243 -43 -80 -86 -157 -95 -173 l-16 -27
-173 200 c-191 220 -215 250 -206 250 16 0 651 81 660 85 6 2 13 4 17 4 4 1
-19 -43 -51 -96z m-973 -50 c50 -45 572 -632 572 -644 0 -4 -50 -83 -112 -176
-457 -690 -836 -1107 -1137 -1255 -72 -35 -97 -42 -163 -46 -99 -6 -151 13
-207 73 -103 111 -143 274 -142 568 0 224 32 531 82 797 33 175 150 644 166
660 11 12 72 17 331 26 511 18 586 17 610 -3z"/>
<path d="M3970 4644 c-95 -15 -145 -31 -219 -66 -154 -74 -282 -229 -327 -398
-22 -85 -23 -234 0 -320 43 -168 166 -328 306 -398 321 -160 710 -42 860 260
125 254 81 536 -115 734 -117 119 -244 176 -415 188 -36 2 -76 2 -90 0z"/>
</g>
</svg>
