<?xml version="1.0" standalone="no"?>
<!DOCTYPE svg PUBLIC "-//W3C//DTD SVG 20010904//EN"
 "http://www.w3.org/TR/2001/REC-SVG-20010904/DTD/svg10.dtd">
<svg version="1.0" xmlns="http://www.w3.org/2000/svg"
 width="804.000000pt" height="804.000000pt" viewBox="0 0 804.000000 804.000000"
 preserveAspectRatio="xMidYMid meet">
<metadata>
Created by potrace 1.14, written by Peter Selinger 2001-2017
</metadata>
<g transform="translate(0.000000,804.000000) scale(0.100000,-0.100000)"
fill="#000000" stroke="none">
<path d="M3239 7843 c-210 -199 -380 -434 -523 -723 -349 -703 -339 -1329 30
-1893 149 -227 257 -350 799 -897 453 -457 620 -638 810 -875 340 -425 551
-831 627 -1205 19 -98 23 -144 23 -310 -1 -173 -4 -209 -28 -324 -15 -71 -32
-137 -38 -148 -21 -40 0 -26 94 63 115 107 231 249 312 380 476 768 365 1727
-322 2774 -122 185 -241 351 -533 745 -520 701 -702 975 -876 1318 -201 395
-301 786 -279 1090 3 50 4 92 1 92 -3 0 -46 -39 -97 -87z"/>
<path d="M3169 4069 c-205 -207 -375 -535 -425 -819 -24 -139 -15 -344 20
-463 34 -116 73 -199 139 -300 93 -142 173 -232 512 -577 182 -185 362 -374
401 -420 278 -331 424 -592 479 -857 22 -105 21 -291 -3 -405 -10 -49 -15 -88
-11 -88 16 0 172 177 223 252 143 217 204 446 193 727 -10 236 -64 433 -191
696 -116 239 -196 362 -531 815 -322 436 -426 593 -535 813 -113 227 -158 386
-169 592 l-7 130 -95 -96z"/>
</g>
</svg>
